<mxfile host="Electron" modified="2024-09-15T17:48:15.382Z" agent="Mozilla/5.0 (Windows NT 10.0; Win64; x64) AppleWebKit/537.36 (KHTML, like Gecko) draw.io/21.6.8 Chrome/114.0.5735.289 Electron/25.5.0 Safari/537.36" etag="VUJouidLIDx3NhadlJ75" version="21.6.8" type="device">
  <diagram name="Страница — 1" id="BkWPEp4kjhq5w7Y2Dze0">
    <mxGraphModel dx="723" dy="706" grid="1" gridSize="10" guides="1" tooltips="1" connect="1" arrows="1" fold="1" page="1" pageScale="1" pageWidth="827" pageHeight="1169" math="0" shadow="0">
      <root>
        <mxCell id="0" />
        <mxCell id="1" parent="0" />
        <mxCell id="VPAgVbprssRAHiCf1E-g-8" style="edgeStyle=orthogonalEdgeStyle;rounded=0;orthogonalLoop=1;jettySize=auto;html=1;exitX=0.5;exitY=1;exitDx=0;exitDy=0;entryX=0.5;entryY=0;entryDx=0;entryDy=0;" edge="1" parent="1" source="VPAgVbprssRAHiCf1E-g-1" target="VPAgVbprssRAHiCf1E-g-4">
          <mxGeometry relative="1" as="geometry" />
        </mxCell>
        <mxCell id="VPAgVbprssRAHiCf1E-g-10" value="Создание" style="edgeLabel;html=1;align=center;verticalAlign=middle;resizable=0;points=[];" vertex="1" connectable="0" parent="VPAgVbprssRAHiCf1E-g-8">
          <mxGeometry x="-0.04" y="1" relative="1" as="geometry">
            <mxPoint as="offset" />
          </mxGeometry>
        </mxCell>
        <mxCell id="VPAgVbprssRAHiCf1E-g-1" value="" style="ellipse;whiteSpace=wrap;html=1;aspect=fixed;fillColor=#000000;" vertex="1" parent="1">
          <mxGeometry x="335" y="270" width="20" height="20" as="geometry" />
        </mxCell>
        <mxCell id="VPAgVbprssRAHiCf1E-g-2" value="" style="ellipse;whiteSpace=wrap;html=1;aspect=fixed;" vertex="1" parent="1">
          <mxGeometry x="325" y="720" width="40" height="40" as="geometry" />
        </mxCell>
        <mxCell id="VPAgVbprssRAHiCf1E-g-3" value="" style="ellipse;whiteSpace=wrap;html=1;aspect=fixed;fillColor=#000000;" vertex="1" parent="1">
          <mxGeometry x="335" y="730" width="20" height="20" as="geometry" />
        </mxCell>
        <mxCell id="VPAgVbprssRAHiCf1E-g-4" value="Новый заказ" style="rounded=1;whiteSpace=wrap;html=1;" vertex="1" parent="1">
          <mxGeometry x="285" y="340" width="120" height="60" as="geometry" />
        </mxCell>
        <mxCell id="VPAgVbprssRAHiCf1E-g-5" value="Приостановленный&lt;br&gt;заказ" style="rounded=1;whiteSpace=wrap;html=1;" vertex="1" parent="1">
          <mxGeometry x="190" y="510" width="120" height="60" as="geometry" />
        </mxCell>
        <mxCell id="VPAgVbprssRAHiCf1E-g-6" value="Заказ в процессе&lt;br&gt;реализации" style="rounded=1;whiteSpace=wrap;html=1;" vertex="1" parent="1">
          <mxGeometry x="390" y="510" width="120" height="60" as="geometry" />
        </mxCell>
        <mxCell id="VPAgVbprssRAHiCf1E-g-11" value="Начало" style="text;html=1;align=center;verticalAlign=middle;resizable=0;points=[];autosize=1;strokeColor=none;fillColor=none;" vertex="1" parent="1">
          <mxGeometry x="265" y="265" width="70" height="30" as="geometry" />
        </mxCell>
        <mxCell id="VPAgVbprssRAHiCf1E-g-12" value="Конец" style="text;html=1;align=center;verticalAlign=middle;resizable=0;points=[];autosize=1;strokeColor=none;fillColor=none;" vertex="1" parent="1">
          <mxGeometry x="365" y="725" width="60" height="30" as="geometry" />
        </mxCell>
        <mxCell id="VPAgVbprssRAHiCf1E-g-15" value="" style="endArrow=classic;html=1;rounded=0;exitX=0.5;exitY=1;exitDx=0;exitDy=0;entryX=0.5;entryY=0;entryDx=0;entryDy=0;" edge="1" parent="1" source="VPAgVbprssRAHiCf1E-g-4" target="VPAgVbprssRAHiCf1E-g-5">
          <mxGeometry width="50" height="50" relative="1" as="geometry">
            <mxPoint x="380" y="580" as="sourcePoint" />
            <mxPoint x="430" y="530" as="targetPoint" />
          </mxGeometry>
        </mxCell>
        <mxCell id="VPAgVbprssRAHiCf1E-g-17" value="Невозможность&lt;br&gt;реализации" style="edgeLabel;html=1;align=center;verticalAlign=middle;resizable=0;points=[];" vertex="1" connectable="0" parent="VPAgVbprssRAHiCf1E-g-15">
          <mxGeometry x="0.4255" y="1" relative="1" as="geometry">
            <mxPoint as="offset" />
          </mxGeometry>
        </mxCell>
        <mxCell id="VPAgVbprssRAHiCf1E-g-18" value="" style="endArrow=classic;html=1;rounded=0;exitX=0.5;exitY=1;exitDx=0;exitDy=0;entryX=0.5;entryY=0;entryDx=0;entryDy=0;" edge="1" parent="1" source="VPAgVbprssRAHiCf1E-g-4" target="VPAgVbprssRAHiCf1E-g-6">
          <mxGeometry width="50" height="50" relative="1" as="geometry">
            <mxPoint x="430" y="440" as="sourcePoint" />
            <mxPoint x="335" y="550" as="targetPoint" />
          </mxGeometry>
        </mxCell>
        <mxCell id="VPAgVbprssRAHiCf1E-g-19" value="Начало&lt;br&gt;реализации" style="edgeLabel;html=1;align=center;verticalAlign=middle;resizable=0;points=[];" vertex="1" connectable="0" parent="VPAgVbprssRAHiCf1E-g-18">
          <mxGeometry x="0.4255" y="1" relative="1" as="geometry">
            <mxPoint as="offset" />
          </mxGeometry>
        </mxCell>
        <mxCell id="VPAgVbprssRAHiCf1E-g-23" style="edgeStyle=orthogonalEdgeStyle;rounded=0;orthogonalLoop=1;jettySize=auto;html=1;exitX=0.5;exitY=1;exitDx=0;exitDy=0;entryX=0.5;entryY=0;entryDx=0;entryDy=0;" edge="1" parent="1" source="VPAgVbprssRAHiCf1E-g-20" target="VPAgVbprssRAHiCf1E-g-2">
          <mxGeometry relative="1" as="geometry" />
        </mxCell>
        <mxCell id="VPAgVbprssRAHiCf1E-g-20" value="Выполненный&lt;br&gt;заказ" style="rounded=1;whiteSpace=wrap;html=1;" vertex="1" parent="1">
          <mxGeometry x="285" y="630" width="120" height="60" as="geometry" />
        </mxCell>
        <mxCell id="VPAgVbprssRAHiCf1E-g-21" value="" style="endArrow=classic;html=1;rounded=0;exitX=0.5;exitY=1;exitDx=0;exitDy=0;entryX=0.5;entryY=0;entryDx=0;entryDy=0;" edge="1" parent="1" source="VPAgVbprssRAHiCf1E-g-6" target="VPAgVbprssRAHiCf1E-g-20">
          <mxGeometry width="50" height="50" relative="1" as="geometry">
            <mxPoint x="460" y="610" as="sourcePoint" />
            <mxPoint x="330" y="590" as="targetPoint" />
          </mxGeometry>
        </mxCell>
        <mxCell id="VPAgVbprssRAHiCf1E-g-22" value="Заказ&lt;br&gt;выполнен" style="edgeLabel;html=1;align=center;verticalAlign=middle;resizable=0;points=[];" vertex="1" connectable="0" parent="VPAgVbprssRAHiCf1E-g-21">
          <mxGeometry x="-0.0127" y="-1" relative="1" as="geometry">
            <mxPoint as="offset" />
          </mxGeometry>
        </mxCell>
      </root>
    </mxGraphModel>
  </diagram>
</mxfile>
